# xmcd
#
# Track frame offsets:
#	150
#	14767
#	28087
#	41062
#	54918
#	68654
#	81578
#	94612
#	107641
#	121495
#	135734
#	148959
#	163041
#	175204
#	188348
#	201633
#	216325
#	229747
#	243751
#	258107
#	272935
#	286326
#
# Disc length: 4007 seconds
#
# Revision: 0
# Processed by: cddbd v1.5.1PL2 Copyright (c) Steve Scherf et al.
# Submitted via: dBpowerAMP V4.0
#
DISCID=4a0fa516
DTITLE=Skip James - Hard Time Killin' Floor
DYEAR=2005
DGENRE=Blues
TTITLE0=Cypress Grove Blues
TTITLE1=If You Haven't Any Hay Get Down the Road
TTITLE2=Hard Time Killin' Floor Blues
TTITLE3=Special Rider Blues
TTITLE4=Devil Got My Woman
TTITLE5=I'm So Glad
TTITLE6=Cherry Ball Blues
TTITLE7=22-20 Blues
TTITLE8=Jesus is a Might Good Leader
TTITLE9=Hard Luck Child
TTITLE10=Little Cow and Calf is Gonna Die Blues
TTITLE11=Illinois Blues
TTITLE12=Drunken Spree
TTITLE13=Four O'Clock Blues
TTITLE14=How Long Buck
TTITLE15=Yola My Blues Away
TTITLE16=Be Ready When He Comes
TTITLE17=What Am I Gonna Do Blues
TTITLE18=My Black Mama, Pt. 1
TTITLE19=My Black Mama, Pt. 2
TTITLE20=Walkin' Blues
TTITLE21=Dry Spell Blues, Pt. 1
EXTD=
EXTT0=
EXTT1=
EXTT2=
EXTT3=
EXTT4=
EXTT5=
EXTT6=
EXTT7=
EXTT8=
EXTT9=
EXTT10=
EXTT11=
EXTT12=
EXTT13=
EXTT14=
EXTT15=
EXTT16=
EXTT17=
EXTT18=
EXTT19=
EXTT20=
EXTT21=
PLAYORDER=
